<mxfile host="app.diagrams.net" modified="2022-08-10T02:14:12.452Z" agent="5.0 (Windows NT 10.0; Win64; x64) AppleWebKit/537.36 (KHTML, like Gecko) Chrome/103.0.0.0 Safari/537.36" etag="45BRxHMGRANRjVSBxERm" version="20.2.2" type="github">
  <diagram id="F9ipNlQTASzgw-6r4mKW" name="第 1 页">
    <mxGraphModel dx="1688" dy="1069" grid="1" gridSize="10" guides="1" tooltips="1" connect="1" arrows="1" fold="1" page="1" pageScale="1" pageWidth="827" pageHeight="1169" math="0" shadow="0">
      <root>
        <mxCell id="0" />
        <mxCell id="1" parent="0" />
        <mxCell id="uaOUZrjpmychXFlq1qa0-2" value="客户端" style="text;html=1;align=center;verticalAlign=middle;resizable=0;points=[];autosize=1;strokeColor=none;fillColor=none;fontSize=16;" vertex="1" parent="1">
          <mxGeometry x="510" y="290" width="70" height="30" as="geometry" />
        </mxCell>
        <mxCell id="uaOUZrjpmychXFlq1qa0-3" value="服务器" style="text;html=1;align=center;verticalAlign=middle;resizable=0;points=[];autosize=1;strokeColor=none;fillColor=none;fontSize=16;" vertex="1" parent="1">
          <mxGeometry x="-50" y="290" width="70" height="30" as="geometry" />
        </mxCell>
        <mxCell id="uaOUZrjpmychXFlq1qa0-4" value="" style="endArrow=classic;html=1;rounded=0;fontSize=16;" edge="1" parent="1">
          <mxGeometry width="50" height="50" relative="1" as="geometry">
            <mxPoint x="550" y="360" as="sourcePoint" />
            <mxPoint x="-20" y="360" as="targetPoint" />
          </mxGeometry>
        </mxCell>
        <mxCell id="uaOUZrjpmychXFlq1qa0-5" value="&lt;span data-reactroot=&quot;&quot; class=&quot;notion-enable-hover&quot; spellcheck=&quot;false&quot; data-token-index=&quot;0&quot; style=&quot;font-family:&amp;quot;SFMono-Regular&amp;quot;, Menlo, Consolas, &amp;quot;PT Mono&amp;quot;, &amp;quot;Liberation Mono&amp;quot;, Courier, monospace;line-height:normal;background:rgba(135,131,120,0.15);color:#EB5757;border-radius:3px;font-size:85%;padding:0.2em 0.4em&quot;&gt;ClientHello&lt;/span&gt;" style="text;html=1;align=center;verticalAlign=middle;resizable=0;points=[];autosize=1;strokeColor=none;fillColor=none;fontSize=16;" vertex="1" parent="1">
          <mxGeometry x="450" y="330" width="120" height="30" as="geometry" />
        </mxCell>
        <mxCell id="uaOUZrjpmychXFlq1qa0-6" value="SSL/TLS 协议版本、支持的密码套件列表、用于生成「会话秘钥」的随机数" style="text;html=1;align=center;verticalAlign=middle;resizable=0;points=[];autosize=1;strokeColor=none;fillColor=none;fontSize=16;" vertex="1" parent="1">
          <mxGeometry x="-10" y="365" width="560" height="30" as="geometry" />
        </mxCell>
        <mxCell id="uaOUZrjpmychXFlq1qa0-7" value="&lt;span data-reactroot=&quot;&quot; class=&quot;notion-enable-hover&quot; spellcheck=&quot;false&quot; data-token-index=&quot;0&quot; style=&quot;font-family:&amp;quot;SFMono-Regular&amp;quot;, Menlo, Consolas, &amp;quot;PT Mono&amp;quot;, &amp;quot;Liberation Mono&amp;quot;, Courier, monospace;line-height:normal;background:rgba(135,131,120,0.15);color:#EB5757;border-radius:3px;font-size:85%;padding:0.2em 0.4em&quot;&gt;SeverHello&lt;/span&gt;" style="text;html=1;align=center;verticalAlign=middle;resizable=0;points=[];autosize=1;strokeColor=none;fillColor=none;fontSize=16;" vertex="1" parent="1">
          <mxGeometry x="-40" y="450" width="110" height="30" as="geometry" />
        </mxCell>
        <mxCell id="uaOUZrjpmychXFlq1qa0-8" value="" style="endArrow=classic;html=1;rounded=0;fontSize=16;" edge="1" parent="1">
          <mxGeometry width="50" height="50" relative="1" as="geometry">
            <mxPoint x="-20" y="480" as="sourcePoint" />
            <mxPoint x="550" y="480" as="targetPoint" />
          </mxGeometry>
        </mxCell>
        <mxCell id="uaOUZrjpmychXFlq1qa0-9" value="确认 SSL/ TLS 协议版本、确认的密码套件列表、&lt;br&gt;用于生产「会话秘钥」的随机数、服务器的数字证书" style="text;html=1;align=center;verticalAlign=middle;resizable=0;points=[];autosize=1;strokeColor=none;fillColor=none;fontSize=16;" vertex="1" parent="1">
          <mxGeometry x="70" y="480" width="390" height="50" as="geometry" />
        </mxCell>
        <mxCell id="uaOUZrjpmychXFlq1qa0-10" value="确认服务器的数字证书的真实性&lt;br&gt;&lt;span data-reactroot=&quot;&quot; class=&quot;notion-enable-hover&quot; data-token-index=&quot;0&quot; style=&quot;&quot;&gt;从数字证书中取出服务器的&lt;/span&gt;公钥加密报文" style="text;html=1;align=center;verticalAlign=middle;resizable=0;points=[];autosize=1;strokeColor=none;fillColor=none;fontSize=16;" vertex="1" parent="1">
          <mxGeometry x="380" y="559" width="310" height="50" as="geometry" />
        </mxCell>
        <mxCell id="uaOUZrjpmychXFlq1qa0-11" value="" style="endArrow=classic;html=1;rounded=0;fontSize=16;" edge="1" parent="1">
          <mxGeometry width="50" height="50" relative="1" as="geometry">
            <mxPoint x="555" y="640" as="sourcePoint" />
            <mxPoint x="-15" y="640" as="targetPoint" />
          </mxGeometry>
        </mxCell>
        <mxCell id="uaOUZrjpmychXFlq1qa0-12" value="一个随机数、加密通信算法改变通知、客户端握手结束通知" style="text;html=1;align=center;verticalAlign=middle;resizable=0;points=[];autosize=1;strokeColor=none;fillColor=none;fontSize=16;" vertex="1" parent="1">
          <mxGeometry x="50" y="640" width="440" height="30" as="geometry" />
        </mxCell>
        <mxCell id="uaOUZrjpmychXFlq1qa0-13" value="&lt;span data-reactroot=&quot;&quot; class=&quot;notion-enable-hover&quot; spellcheck=&quot;false&quot; data-token-index=&quot;0&quot; style=&quot;font-family: SFMono-Regular, Menlo, Consolas, &amp;quot;PT Mono&amp;quot;, &amp;quot;Liberation Mono&amp;quot;, Courier, monospace; line-height: normal; background: rgba(135, 131, 120, 0.15); border-radius: 3px; font-size: 85%; padding: 0.2em 0.4em;&quot;&gt;&lt;font color=&quot;#b266ff&quot;&gt;Client Random&lt;/font&gt;&lt;/span&gt;" style="text;whiteSpace=wrap;html=1;fontSize=16;" vertex="1" parent="1">
          <mxGeometry x="490" y="390" width="140" height="40" as="geometry" />
        </mxCell>
        <mxCell id="uaOUZrjpmychXFlq1qa0-14" value="&lt;span data-reactroot=&quot;&quot; class=&quot;notion-enable-hover&quot; spellcheck=&quot;false&quot; data-token-index=&quot;0&quot; style=&quot;font-family: SFMono-Regular, Menlo, Consolas, &amp;quot;PT Mono&amp;quot;, &amp;quot;Liberation Mono&amp;quot;, Courier, monospace; line-height: normal; background: rgba(135, 131, 120, 0.15); border-radius: 3px; font-size: 85%; padding: 0.2em 0.4em;&quot;&gt;&lt;font color=&quot;#b266ff&quot;&gt;Server Random&lt;/font&gt;&lt;/span&gt;" style="text;html=1;align=center;verticalAlign=middle;resizable=0;points=[];autosize=1;strokeColor=none;fillColor=none;fontSize=16;" vertex="1" parent="1">
          <mxGeometry x="-50" y="520" width="130" height="30" as="geometry" />
        </mxCell>
        <mxCell id="uaOUZrjpmychXFlq1qa0-15" value="&lt;span data-reactroot=&quot;&quot; class=&quot;notion-enable-hover&quot; spellcheck=&quot;false&quot; data-token-index=&quot;0&quot; style=&quot;font-family: SFMono-Regular, Menlo, Consolas, &amp;quot;PT Mono&amp;quot;, &amp;quot;Liberation Mono&amp;quot;, Courier, monospace; line-height: normal; background: rgba(135, 131, 120, 0.15); border-radius: 3px; font-size: 85%; padding: 0.2em 0.4em;&quot;&gt;pre-master key&lt;/span&gt;" style="text;html=1;align=center;verticalAlign=middle;resizable=0;points=[];autosize=1;strokeColor=none;fillColor=none;fontSize=16;fontColor=#B266FF;" vertex="1" parent="1">
          <mxGeometry x="50" y="665" width="140" height="30" as="geometry" />
        </mxCell>
        <mxCell id="uaOUZrjpmychXFlq1qa0-16" value="&lt;span data-reactroot=&quot;&quot; class=&quot;notion-enable-hover&quot; data-token-index=&quot;0&quot; style=&quot;&quot;&gt;服务器和客户端有了这三个随机数，&lt;br&gt;接着就用双方协商的加密算法，各自生成本次通信的「会话秘钥」&lt;/span&gt;。" style="text;html=1;align=center;verticalAlign=middle;resizable=0;points=[];autosize=1;strokeColor=none;fillColor=none;fontSize=16;fontColor=#B266FF;" vertex="1" parent="1">
          <mxGeometry x="45" y="710" width="500" height="50" as="geometry" />
        </mxCell>
        <mxCell id="uaOUZrjpmychXFlq1qa0-20" value="&lt;span data-reactroot=&quot;&quot; class=&quot;notion-enable-hover&quot; spellcheck=&quot;false&quot; data-token-index=&quot;0&quot; style=&quot;font-family: SFMono-Regular, Menlo, Consolas, &amp;quot;PT Mono&amp;quot;, &amp;quot;Liberation Mono&amp;quot;, Courier, monospace; line-height: normal; background: rgba(135, 131, 120, 0.15); border-radius: 3px; padding: 0.2em 0.4em;&quot;&gt;&lt;font style=&quot;font-size: 16px;&quot;&gt;公钥加密&lt;/font&gt;&lt;/span&gt;" style="text;html=1;align=center;verticalAlign=middle;resizable=0;points=[];autosize=1;strokeColor=none;fillColor=none;fontSize=16;" vertex="1" parent="1">
          <mxGeometry x="460" y="610" width="100" height="30" as="geometry" />
        </mxCell>
        <mxCell id="uaOUZrjpmychXFlq1qa0-21" value="" style="endArrow=classic;html=1;rounded=0;fontSize=16;" edge="1" parent="1">
          <mxGeometry width="50" height="50" relative="1" as="geometry">
            <mxPoint x="-20" y="800" as="sourcePoint" />
            <mxPoint x="550" y="800" as="targetPoint" />
          </mxGeometry>
        </mxCell>
        <mxCell id="uaOUZrjpmychXFlq1qa0-22" value="计算出本次通信的「会话秘钥」" style="text;html=1;align=center;verticalAlign=middle;resizable=0;points=[];autosize=1;strokeColor=none;fillColor=none;fontSize=16;fontColor=#000000;" vertex="1" parent="1">
          <mxGeometry x="-110" y="760" width="250" height="30" as="geometry" />
        </mxCell>
        <mxCell id="uaOUZrjpmychXFlq1qa0-23" value="加密通信算法改变通知、服务器握手结束通知" style="text;html=1;align=center;verticalAlign=middle;resizable=0;points=[];autosize=1;strokeColor=none;fillColor=none;fontSize=16;fontColor=#000000;" vertex="1" parent="1">
          <mxGeometry x="95" y="800" width="340" height="30" as="geometry" />
        </mxCell>
      </root>
    </mxGraphModel>
  </diagram>
</mxfile>
